<svg xmlns="http://www.w3.org/2000/svg" width="1080" height="1080">
<path d="M0 0 C356.4 0 712.8 0 1080 0 C1080 356.4 1080 712.8 1080 1080 C723.6 1080 367.2 1080 0 1080 C0 723.6 0 367.2 0 0 Z " fill="#2B3657" transform="translate(0,0)"/>
<path d="M0 0 C3.34770182 0.00538373 6.69527085 0.00001121 10.04296875 -0.00634766 C12.20963571 -0.00568712 14.37630258 -0.00440648 16.54296875 -0.00244141 C18.01530975 -0.00547775 18.01530975 -0.00547775 19.51739502 -0.00857544 C24.11377947 0.00669997 28.62524819 0.15495943 33.19792652 0.62941074 C42.14018879 1.39408666 51.09100617 1.27737645 60.0587616 1.27513123 C62.08228017 1.27826937 64.1057981 1.28184519 66.1293152 1.28581864 C71.6675563 1.29547108 77.20578708 1.29905963 82.74403536 1.30166161 C88.72580556 1.30556948 94.70756676 1.31520607 100.68933105 1.32421875 C111.04961644 1.3391334 121.40990142 1.35069328 131.7701931 1.36016655 C147.46011145 1.37461704 163.15001188 1.39737958 178.83991741 1.42183166 C185.14395352 1.43162002 191.44799004 1.44114172 197.75202656 1.45066166 C198.45233201 1.45172043 199.15263746 1.45277919 199.87416429 1.45387004 C216.52914394 1.4789997 233.18412687 1.50150512 249.83911133 1.52319336 C250.56746155 1.5241438 251.29581177 1.52509424 252.04623322 1.52607348 C269.03517426 1.54822015 286.02411629 1.56909777 303.01306152 1.58776855 C303.74357492 1.58857231 304.47408831 1.58937606 305.22673847 1.59020416 C308.9103986 1.594255 312.59405874 1.59829658 316.27771888 1.60233743 C317.00575989 1.60313642 317.73380091 1.60393541 318.48390377 1.60475861 C319.95337918 1.60637092 321.42285458 1.60798174 322.89232998 1.60959108 C347.19950468 1.63625329 371.50666301 1.66963533 395.81381832 1.71036922 C399.25015459 1.71611852 402.68649101 1.72177721 406.12282753 1.72737312 C406.79905022 1.72847493 407.47527291 1.72957673 408.1719872 1.73071192 C419.02841917 1.74817641 429.88484628 1.75837137 440.74128939 1.76562557 C451.66215734 1.77303753 462.58299668 1.78762888 473.50384619 1.80905133 C479.41374815 1.8204119 485.32360856 1.8285788 491.23352242 1.82804298 C496.65262738 1.82761277 502.07163907 1.83641429 507.49072007 1.85229278 C509.44219446 1.85641983 511.39367943 1.85726266 513.34515598 1.85432868 C541.52103616 1.81719486 570.08421023 6.06434274 597.08984375 14.13037109 C598.37758481 14.50023017 599.66534482 14.87002325 600.953125 15.23974609 C642.98488799 27.77628827 679.98137863 47.75630128 714.08984375 75.13037109 C713.48861004 78.42759142 712.39686498 80.30312006 710.24609375 82.85302734 C709.6636792 83.55089355 709.08126465 84.24875977 708.48120117 84.96777344 C707.85705322 85.70205566 707.23290527 86.43633789 706.58984375 87.19287109 C705.30456068 88.72792116 704.01940435 90.26307737 702.734375 91.79833984 C702.10740723 92.5426123 701.48043945 93.28688477 700.83447266 94.05371094 C698.62407627 96.6847817 696.44789378 99.34133899 694.27734375 102.00537109 C693.57996094 102.85873047 692.88257813 103.71208984 692.1640625 104.59130859 C691.47957031 105.42919922 690.79507813 106.26708984 690.08984375 107.13037109 C688.58998679 108.96382145 687.08998435 110.79715281 685.58984375 112.63037109 C684.8421875 113.54431641 684.09453125 114.45826172 683.32421875 115.39990234 C681.87687324 117.16859905 680.42899074 118.93685652 678.98046875 120.70458984 C674.5040333 126.16943531 670.04277975 131.64637754 665.58984375 137.13037109 C660.43760723 143.4755851 655.27028677 149.80815466 650.08984375 156.13037109 C648.40202117 158.19260734 646.71470098 160.25525401 645.02734375 162.31787109 C643.71484375 163.92203776 642.40234375 165.52620443 641.08984375 167.13037109 C637.73475531 165.66770332 635.52479153 163.78963036 632.90234375 161.25537109 C603.77531532 134.68708601 559.04588103 113.73928144 519.23144531 113.16552734 C517.64712647 113.13951937 516.06308679 113.09503191 514.47949219 113.04052734 C475.43939134 111.71037059 440.42146475 124.18759167 411.64306641 150.671875 C387.46549345 173.37492763 370.33435337 208.69683929 369.01419067 242.04119873 C367.5747406 288.53387516 376.83175745 328.11343343 408.33984375 363.66943359 C427.5490754 383.65550917 453.23271071 396.34035528 480.08984375 402.13037109 C480.89099609 402.31510986 481.69214844 402.49984863 482.51757812 402.69018555 C490.87622538 404.44465367 499.21235681 404.57347944 507.71484375 404.56787109 C508.48407166 404.56794159 509.25329956 404.56801208 510.0458374 404.56808472 C538.97681301 404.46669723 564.79152691 395.68781951 590.8359375 383.56396484 C594.08984375 382.13037109 594.08984375 382.13037109 596.08984375 382.13037109 C596.08984375 339.56037109 596.08984375 296.99037109 596.08984375 253.13037109 C633.37984375 253.13037109 670.66984375 253.13037109 709.08984375 253.13037109 C709.53317713 302.46128498 709.53317713 302.46128498 709.62695312 323.12255859 C709.69224199 337.39285731 709.76902089 351.66244198 709.91967773 365.93212891 C710.02934591 376.32447069 710.10029049 386.71623365 710.12481719 397.10913801 C710.13915417 402.61206693 710.17282214 408.11334 710.25287437 413.61573792 C710.32764419 418.79711529 710.35055247 423.97615821 710.33402824 429.15802383 C710.3370501 431.05761031 710.3588768 432.95727624 710.40110397 434.85639572 C710.70425602 449.19586869 710.70425602 449.19586869 706.71274757 453.97877502 C703.91840368 456.04504556 701.20745473 457.60928127 698.08984375 459.13037109 C696.60155496 460.08366129 695.12236222 461.05159955 693.66015625 462.04443359 C671.10537981 476.00268908 647.15362171 486.57652929 622.08984375 495.13037109 C621.05972168 495.48824707 620.02959961 495.84612305 618.96826172 496.21484375 C596.36629533 504.01965829 573.27011058 509.40600018 549.65234375 513.00537109 C548.97800293 513.1090097 548.30366211 513.21264832 547.60888672 513.31942749 C530.68500796 515.88482239 513.99023337 516.27336636 496.90475464 516.23284912 C494.67683535 516.23130044 492.44891573 516.23019043 490.22099602 516.22947812 C484.1312099 516.22622109 478.04144827 516.21660798 471.95167136 516.20587087 C466.04756033 516.19643901 460.14344665 516.19179567 454.23933039 516.18691309 C438.43673707 516.17355264 422.63416422 516.1498898 406.83158545 516.12510705 C399.34407007 516.11344306 391.85655302 516.10311069 384.36903547 516.09294575 C358.69813467 516.05807892 333.02723818 516.02114785 307.35635185 515.97678757 C305.74713652 515.97401174 304.13792118 515.97123593 302.52870584 515.96846016 C300.91578464 515.96567592 299.30286344 515.9628914 297.68994224 515.96010661 C294.45459041 515.95452064 291.21923856 515.94893865 287.98388672 515.94335938 C287.18171729 515.94197392 286.37954785 515.94058847 285.55307026 515.93916104 C259.56804589 515.89436424 233.58302643 515.86174544 207.59797617 515.83651448 C180.07336729 515.80974429 152.54879387 515.7721837 125.02421677 515.72233987 C121.99609581 515.71689551 118.96797477 515.71149389 115.93985367 515.70612335 C115.19433888 515.70479597 114.44882409 515.70346859 113.68071795 515.70210098 C101.74170513 515.68108968 89.80270226 515.66971169 77.86367437 515.66187106 C65.83730555 515.65372066 53.81099282 515.63442567 41.78465889 515.60421863 C35.28389268 515.58817409 28.78319163 515.57701133 22.28240204 515.57882118 C-28.5540642 515.58666816 -28.5540642 515.58666816 -51.91015625 512.13037109 C-52.93394512 511.98106187 -53.957734 511.83175265 -55.01254678 511.67791891 C-89.9201831 506.49686134 -124.49076069 496.12278514 -156.49804688 481.24316406 C-158.70118667 480.22677629 -160.91682072 479.25153163 -163.14453125 478.29052734 C-187.61824299 467.54351718 -210.41534468 452.17505107 -230.91015625 435.13037109 C-230.38248061 429.29199453 -228.00313776 424.7778414 -225.39038086 419.63671875 C-224.92206345 418.69949982 -224.45374603 417.76228088 -223.97123718 416.79666138 C-222.42588181 413.70873083 -220.86927911 410.62661844 -219.3125 407.54443359 C-218.23705957 405.40101525 -217.16232645 403.25724189 -216.08827209 401.11312866 C-213.26274448 395.47732852 -210.42763912 389.84639999 -207.59051514 384.21643066 C-204.69582164 378.46799819 -201.81020817 372.7150123 -198.92382812 366.96240234 C-193.26148419 355.68058334 -187.58931893 344.40373227 -181.91015625 333.13037109 C-178.2710832 334.51160878 -175.94574905 335.77733187 -173.16015625 338.50537109 C-125.34418371 382.15317497 -52.4414174 409.04713093 11.88037109 407.28271484 C25.16719482 406.65203038 39.31592241 403.01098517 49.6015625 394.26708984 C51.08984375 393.13037109 51.08984375 393.13037109 53.08984375 393.13037109 C53.36828125 392.56962891 53.64671875 392.00888672 53.93359375 391.43115234 C54.71283221 389.88057312 55.50481432 388.33634087 56.30859375 386.79833984 C61.30083812 377.1334765 64.07159908 367.99610102 61.33203125 357.12255859 C55.59968151 340.55742193 42.24565382 331.44952381 27.06494141 324.05615234 C14.35317423 318.0978061 0.78032212 314.66509604 -12.72412109 311.00439453 C-17.27844765 309.75500839 -21.81688551 308.4519945 -26.35595703 307.1484375 C-29.83207759 306.15273598 -33.31210641 305.17184823 -36.79296875 304.19287109 C-145.21681436 273.46355797 -145.21681436 273.46355797 -177.91015625 230.13037109 C-178.51214844 229.36724609 -179.11414063 228.60412109 -179.734375 227.81787109 C-200.43691354 200.27651646 -203.72099519 161.32583553 -199.21875 128.06787109 C-198.41486134 123.33108429 -197.25907785 118.73841131 -195.91015625 114.13037109 C-195.70116699 113.37594727 -195.49217773 112.62152344 -195.27685547 111.84423828 C-188.88924392 89.15505929 -176.41275246 69.78179405 -159.91015625 53.13037109 C-159.00910156 52.21642578 -158.10804688 51.30248047 -157.1796875 50.36083984 C-115.61354468 10.28534491 -55.48046058 -0.10619052 0 0 Z " fill="#FEFEFE" transform="translate(297.91015625,280.86962890625)"/>
<path d="M0 0 C1.51441177 -0.00551376 1.51441177 -0.00551376 3.05941772 -0.01113892 C15.52735191 -0.03482608 27.66353172 0.4885598 40 2.3125 C41.26038086 2.49466064 42.52076172 2.67682129 43.81933594 2.86450195 C59.12057458 5.16368807 74.16810351 7.88251699 89 12.3125 C90.28774106 12.68235908 91.57550107 13.05215216 92.86328125 13.421875 C134.89504424 25.95841718 171.89153488 45.93843018 206 73.3125 C205.39876629 76.60972032 204.30702123 78.48524897 202.15625 81.03515625 C201.57383545 81.73302246 200.9914209 82.43088867 200.39135742 83.14990234 C199.4551355 84.25132568 199.4551355 84.25132568 198.5 85.375 C197.21471693 86.91005007 195.9295606 88.44520627 194.64453125 89.98046875 C194.01756348 90.72474121 193.3905957 91.46901367 192.74462891 92.23583984 C190.53423252 94.86691061 188.35805003 97.5234679 186.1875 100.1875 C185.49011719 101.04085937 184.79273438 101.89421875 184.07421875 102.7734375 C183.38972656 103.61132812 182.70523437 104.44921875 182 105.3125 C180.50014304 107.14595036 179.0001406 108.97928171 177.5 110.8125 C176.75234375 111.72644531 176.0046875 112.64039063 175.234375 113.58203125 C173.78702949 115.35072795 172.33914699 117.11898543 170.890625 118.88671875 C166.41418955 124.35156421 161.952936 129.82850645 157.5 135.3125 C152.34776348 141.65771401 147.18044302 147.99028357 142 154.3125 C140.31217742 156.37473625 138.62485723 158.43738292 136.9375 160.5 C135.625 162.10416667 134.3125 163.70833333 133 165.3125 C129.64491156 163.84983223 127.43494778 161.97175927 124.8125 159.4375 C95.68547157 132.86921492 50.95603728 111.92141034 11.14160156 111.34765625 C9.55728272 111.32164828 7.97324304 111.27716082 6.38964844 111.22265625 C-32.65045241 109.89249949 -67.668379 122.36972058 -96.44677734 148.85400391 C-120.6243503 171.55705654 -137.75549038 206.8789682 -139.07565308 240.22332764 C-140.51510315 286.71600407 -131.2580863 326.29556233 -99.75 361.8515625 C-80.54076835 381.83763807 -54.85713304 394.52248419 -28 400.3125 C-27.19884766 400.49723877 -26.39769531 400.68197754 -25.57226562 400.87231445 C-17.21361837 402.62678258 -8.87748694 402.75560835 -0.375 402.75 C0.77884186 402.75010574 0.77884186 402.75010574 1.95599365 402.75021362 C30.88696926 402.64882614 56.70168316 393.86994841 82.74609375 381.74609375 C86 380.3125 86 380.3125 88 380.3125 C88 337.7425 88 295.1725 88 251.3125 C125.29 251.3125 162.58 251.3125 201 251.3125 C201.44333338 300.64341388 201.44333338 300.64341388 201.53710938 321.3046875 C201.60239824 335.57498622 201.67917714 349.84457089 201.82983398 364.11425781 C201.93950216 374.5065996 202.01044674 384.89836256 202.03497344 395.29126692 C202.04931042 400.79419584 202.08297839 406.29546891 202.16303062 411.79786682 C202.23780044 416.9792442 202.26070872 422.15828711 202.24418449 427.34015274 C202.24720635 429.23973922 202.26903305 431.13940515 202.31126022 433.03852463 C202.61441227 447.3779976 202.61441227 447.3779976 198.62290382 452.16090393 C195.82855993 454.22717446 193.11761098 455.79141018 190 457.3125 C188.51171121 458.2657902 187.03251847 459.23372846 185.5703125 460.2265625 C163.01553606 474.18481799 139.06377796 484.75865819 114 493.3125 C112.96987793 493.67037598 111.93975586 494.02825195 110.87841797 494.39697266 C88.27645158 502.2017872 65.18026683 507.58812909 41.5625 511.1875 C40.88815918 511.29113861 40.21381836 511.39477722 39.51904297 511.5015564 C-35.54214705 522.87965692 -112.45764056 507.22932368 -173.9375 462 C-179.98401066 457.40971704 -185.78374333 452.5573876 -191.52197266 447.59082031 C-192.86760772 446.4270038 -194.22052834 445.27162454 -195.57421875 444.1171875 C-199.77706943 440.47804685 -203.56728078 436.72035159 -207.1484375 432.46875 C-208.44805576 430.9552705 -209.79111834 429.47854132 -211.1640625 428.03125 C-258.56939789 378.00086346 -276.53239725 309.09005005 -275.11376953 241.72753906 C-274.86259185 234.18789646 -274.1156695 226.76950223 -273 219.3125 C-272.90348145 218.63074707 -272.80696289 217.94899414 -272.70751953 217.24658203 C-264.04571581 157.3819977 -232.03068955 99.52711824 -184 62.3125 C-182.66404449 61.25913742 -181.32810839 60.20575023 -179.9921875 59.15234375 C-171.62103004 52.60145608 -163.21209933 46.63734643 -154 41.3125 C-152.99839844 40.70535156 -151.99679687 40.09820312 -150.96484375 39.47265625 C-119.15026875 20.56946406 -85.28847685 9.49915471 -49 3.3125 C-48.05995117 3.14443848 -47.11990234 2.97637695 -46.15136719 2.80322266 C-30.82006146 0.14898691 -15.51607071 0.02722936 0 0 Z " fill="#FEFEFE" transform="translate(806,282.6875)"/>
<path d="M0 0 C59.07 0 118.14 0 179 0 C175.94799236 3.05200764 172.72135443 5.23962808 169.125 7.5625 C147.76513469 21.61788871 127.59680296 38.64593866 112 59 C111.22269531 60.00329346 111.22269531 60.00329346 110.4296875 61.02685547 C101.59318363 72.48858781 93.85137619 84.25247414 87 97 C86.63181152 97.68126953 86.26362305 98.36253906 85.88427734 99.06445312 C54.86227677 157.07888074 49.42660924 228.82828079 68.28173828 291.67871094 C80.29923613 330.51704186 100.31968494 367.73678221 130 396 C135 401 135 401 136.59375 402.69921875 C146.07556986 412.60289924 157.41863186 420.45109089 168.66577148 428.20410156 C170.45973942 429.44676672 172.23230373 430.72023926 174 432 C174 432.33 174 432.66 174 433 C105.69 433 37.38 433 -33 433 C-29.4413207 429.4413207 -25.84944575 425.99947782 -22.125 422.625 C-21.05525221 421.64403267 -19.98623703 420.66226581 -18.91796875 419.6796875 C-17.30349722 418.19705367 -15.68509667 416.71854332 -14.05078125 415.2578125 C2.08326074 400.17853839 12.25801719 379.00725418 18 358 C18.32226562 356.94296875 18.64453125 355.8859375 18.9765625 354.796875 C25.20136019 331.70335075 24.84169138 306.29701773 20 283 C19.79914795 282.00468262 19.79914795 282.00468262 19.59423828 280.98925781 C12.54339874 247.4016222 -10.93376371 220.46191144 -39 202 C-40.00675781 201.33484375 -41.01351562 200.6696875 -42.05078125 199.984375 C-58.6055406 189.84123477 -77.66409919 183.77424956 -95.8125 177.0625 C-97.02035156 176.61414795 -98.22820312 176.1657959 -99.47265625 175.70385742 C-106.4884029 173.14490633 -113.53009701 170.92151353 -120.72485352 168.92260742 C-125.37808645 167.61179361 -129.96669486 166.12243135 -134.5625 164.625 C-140.86409336 162.59056761 -147.17113033 160.63940122 -153.55493164 158.87915039 C-222.07550863 139.97945274 -222.07550863 139.97945274 -235.4609375 116.4296875 C-239.94390889 107.14176335 -240.67428566 97.04574327 -237.9375 87.0625 C-234.8197342 79.32636149 -228.48509291 73.45751808 -221 70 C-216.72232154 68.42603369 -212.40479712 67.16565973 -208 66 C-206.81664062 65.65775391 -206.81664062 65.65775391 -205.609375 65.30859375 C-175.79312168 57.85453042 -138.93302298 69.22220925 -111 79 C-110.02144043 79.33370605 -109.04288086 79.66741211 -108.03466797 80.01123047 C-84.6365306 87.99421196 -62.12491206 97.85654917 -40.3203125 109.4921875 C-39.1456543 110.11843018 -39.1456543 110.11843018 -37.94726562 110.75732422 C-36.43027341 111.5690873 -34.91582116 112.38561989 -33.40429688 113.20751953 C-29.90221631 115.27546183 -29.90221631 115.27546183 -26 116 C-19.07293995 101.76025945 -12.19166505 87.50630341 -5.5625 73.125 C-0.27344781 61.65436296 5.17803323 50.27027296 10.71264648 38.91650391 C14.90042314 30.31922422 18.98056706 21.67710218 23 13 C22.26628174 12.71914551 21.53256348 12.43829102 20.77661133 12.14892578 C18.25688264 11.10629471 15.94949302 9.95007522 13.57421875 8.6171875 C12.77822266 8.17246094 11.98222656 7.72773438 11.16210938 7.26953125 C10.34548828 6.80933594 9.52886719 6.34914063 8.6875 5.875 C7.85154297 5.40707031 7.01558594 4.93914062 6.15429688 4.45703125 C4.10133767 3.3073741 2.04997798 2.15496198 0 1 C0 0.67 0 0.34 0 0 Z " fill="#283354" transform="translate(474,323)"/>
<path d="M0 0 C31.08949208 18.54401854 69.02275614 29.45836767 105 32 C105 32.33 105 32.66 105 33 C-45.48 33 -195.96 33 -351 33 C-351 32.67 -351 32.34 -351 32 C-350.33806641 31.96036133 -349.67613281 31.92072266 -348.99414062 31.87988281 C-312.42247031 29.60201897 -259.56573153 24.24002173 -231.06781387 -1.76303196 C-222.76594687 -9.05428753 -213.33139595 -8.03501898 -202.90136719 -8.01342773 C-200.86348886 -8.03443672 -198.825639 -8.05837998 -196.78782654 -8.08502197 C-191.27307379 -8.1477555 -185.75899398 -8.16657693 -180.24392223 -8.17513919 C-175.62935922 -8.18645731 -171.01506072 -8.21971403 -166.40061212 -8.2530151 C-155.50714502 -8.33142562 -144.61393477 -8.37463405 -133.72021484 -8.39477539 C-122.5077637 -8.41602254 -111.29663835 -8.49165522 -100.08466792 -8.59507221 C-90.4359771 -8.68241064 -80.78746209 -8.738151 -71.1384232 -8.76836735 C-65.38548611 -8.78654469 -59.63319468 -8.81584519 -53.88051605 -8.87460136 C-48.4661529 -8.92832491 -43.05306814 -8.942228 -37.63847542 -8.92651367 C-35.66084783 -8.92715269 -33.68316726 -8.9412708 -31.70575523 -8.97047615 C-18.68646007 -9.15191759 -10.75616867 -7.50680534 0 0 Z " fill="#FEB274" transform="translate(662,763)"/>
<path d="M0 0 C145.2 0 290.4 0 440 0 C440 0.33 440 0.66 440 1 C439.15107178 1.09498779 438.30214355 1.18997559 437.42749023 1.2878418 C395.632551 6.03886876 348.9064779 14.57222854 313.83080292 39.54436016 C310.24546523 41.3879927 307.69478204 41.38128847 303.6685791 41.39009094 C302.94000088 41.39562632 302.21142266 41.4011617 301.46076632 41.40686482 C299.02379826 41.42148855 296.58738519 41.41454972 294.15039062 41.4074707 C292.40049333 41.41313477 290.65059952 41.41998017 288.90071106 41.42791748 C284.14554359 41.44477255 279.39060791 41.44134216 274.63542747 41.43156838 C271.65640831 41.42578156 268.67740371 41.42333246 265.69837952 41.42183495 C256.35493508 41.41593943 247.01164015 41.39722275 237.66826391 41.36087352 C226.92743736 41.31927274 216.18773019 41.31983654 205.44689608 41.35769397 C197.12020426 41.38439931 188.79410546 41.37233083 180.4674716 41.33192891 C175.50721469 41.30871024 170.54819485 41.30108394 165.58796692 41.33419228 C126.84400029 41.56719915 126.84400029 41.56719915 110.87491226 31.15563583 C108.00940924 29.3894316 105.03611541 28.24712518 101.89453125 27.046875 C100.88245605 26.65870605 99.87038086 26.27053711 98.82763672 25.87060547 C97.8326416 25.50080566 96.83764648 25.13100586 95.8125 24.75 C94.70922363 24.33508301 93.60594727 23.92016602 92.46923828 23.49267578 C89.31741438 22.31551069 86.15995778 21.15511727 83 20 C81.81688232 19.55962402 81.81688232 19.55962402 80.60986328 19.11035156 C54.61473154 9.50100197 27.37416949 4.60465439 0 1 C0 0.67 0 0.34 0 0 Z " fill="#FEB274" transform="translate(342,283)"/>
</svg>